inDegrees=no
num_controls=7
num_derivatives=13
num_iterations=244
num_multipliers=7
num_parameters=0
num_slacks=7
num_states=26
objective=6.354563
objective_accelerations=0.578201
objective_balance=0.067256
objective_effort=0.507857
objective_height=5.152883
objective_ligament=0.048366
solver_duration=2078.657524
status=Solve_Succeeded
success=true
DataType=double
version=3
OpenSimVersion=4.4-2022-07-23-0e9fedc
endheader
time	/jointset/ground_pelvis/pelvis_tilt/value	/jointset/ground_pelvis/pelvis_tx/value	/jointset/ground_pelvis/pelvis_ty/value	/jointset/hip_r/hip_flexion_r/value	/jointset/hip_r/hip_adduction_r/value	/jointset/hip_r/hip_rotation_r/value	/jointset/back/lumbar_extension/value	/jointset/patellofemoral_r/patellar_flexion_r/value	/jointset/knee_r/knee_flexion_r/value	/jointset/knee_r/knee_adduction_r/value	/jointset/knee_r/knee_rotation_r/value	/jointset/ankle_r/ankle_angle_r/value	/jointset/subtalar_r/subtalar_angle_r/value	/jointset/ground_pelvis/pelvis_tilt/speed	/jointset/ground_pelvis/pelvis_tx/speed	/jointset/ground_pelvis/pelvis_ty/speed	/jointset/hip_r/hip_flexion_r/speed	/jointset/hip_r/hip_adduction_r/speed	/jointset/hip_r/hip_rotation_r/speed	/jointset/back/lumbar_extension/speed	/jointset/patellofemoral_r/patellar_flexion_r/speed	/jointset/knee_r/knee_flexion_r/speed	/jointset/knee_r/knee_adduction_r/speed	/jointset/knee_r/knee_rotation_r/speed	/jointset/ankle_r/ankle_angle_r/speed	/jointset/subtalar_r/subtalar_angle_r/speed	/forceset/tau_hip_flexion_r	/forceset/tau_hip_adduction_r	/forceset/tau_hip_rotation_r	/forceset/tau_knee_flexion_r	/forceset/tau_ankle_angle_r	/forceset/tau_subtalar_angle_r	/forceset/tau_lumbar_extension	lambda_cid13_p0	lambda_cid14_p0	lambda_cid14_p1	lambda_cid14_p2	lambda_cid14_p3	lambda_cid14_p4	lambda_cid14_p5	/jointset/ground_pelvis/pelvis_tilt/accel	/jointset/ground_pelvis/pelvis_tx/accel	/jointset/ground_pelvis/pelvis_ty/accel	/jointset/hip_r/hip_flexion_r/accel	/jointset/hip_r/hip_adduction_r/accel	/jointset/hip_r/hip_rotation_r/accel	/jointset/back/lumbar_extension/accel	/jointset/patellofemoral_r/patellar_flexion_r/accel	/jointset/knee_r/knee_flexion_r/accel	/jointset/knee_r/knee_adduction_r/accel	/jointset/knee_r/knee_rotation_r/accel	/jointset/ankle_r/ankle_angle_r/accel	/jointset/subtalar_r/subtalar_angle_r/accel	gamma_cid13_p0	gamma_cid14_p0	gamma_cid14_p1	gamma_cid14_p2	gamma_cid14_p3	gamma_cid14_p4	gamma_cid14_p5
1	-0.2909813623834114	0.006813832286118587	0.6790495232431524	1.39432479690767	-0.2472208189840223	0.02007445003102368	-0.4363282540539007	1.344940644902571	1.34494064490257	0.02561524960529543	0.1745327949188321	0.4363105513932176	0.08302255399044785	-0.0005420043717060865	0.003695102643708269	0.0154845536147431	-0.04121736471759917	0.001140920729048336	-0.0199551907016205	0.0008684981362480844	-0.04906129005776513	-0.04906129005776545	-0.008393420582683331	-1.989322767400537e-06	-0.00877806699698034	-0.0006932365754302967	-0.27608145515079	0.007877356613989521	0.01866893131567115	-0.4847702932801343	-0.01808442604003078	0.008257159223340192	0.2959842592625656	-0.04485772156188608	-54.337840348248	-5.107479781242957	0.3369197602928356	16.29938267178247	-797.9500844022346	66.74875995562898	1.349176195813703	0.122658927415583	1.690147033158733	-5.337200653379338	-0.01675820555641266	-1.08777188526953	0.09954474638227603	-5.074536134660889	-5.074536134660887	0.2971632858996686	0.009609836673400051	-1.316981249596076	-0.4700417744140571	1.282267879377815e-09	-3.220146340969582e-09	1.13549993280878e-08	7.082585222721442e-09	7.772932349315816e-09	-6.240324223810663e-09	1.138581520024944e-08
1.01	-0.290920581869558	0.006856971361710045	0.6792887239044715	1.393647084174256	-0.2472100998252073	0.0198212128770137	-0.4363121187938831	1.344196332024083	1.344196332024081	0.0255466139811354	0.1745327544279832	0.4361569241761231	0.08299235956201922	0.01264354248791858	0.004941636548308003	0.0323543208287464	-0.09429047000367914	0.001003776891999356	-0.03069036789292371	0.002525782869056255	-0.09982537175771841	-0.09982537175771855	-0.005325669265964694	-5.402440957136328e-06	-0.02195241848802385	-0.005345092263326265	-0.277244434690014	0.008231663990365332	0.01865914946422656	-0.4838280436473126	-0.01941473839473081	0.008353106563098879	0.2970830256053992	-0.0448685422553471	-54.78947659111495	-5.146233623530161	0.3446350723859821	16.49964402674292	-798.5056888606612	66.60404227145096	1.295059900528597	0.1269902247487187	1.685201048570087	-5.287158232578893	-0.01205994096066482	-1.066110768486033	0.2239046869377383	-5.080957451396324	-5.080957451396301	0.3127888379129132	-0.005206902304913375	-1.31841981657978	-0.4626681463442023	1.725839340607255e-09	-2.476236476056661e-09	2.698370169182059e-08	1.201989656524262e-08	4.986914809725547e-09	-9.189672195564254e-09	2.840287855477255e-08
1.02	-0.2907295826932118	0.006912843696900799	0.6796965841345404	1.392439681834701	-0.2472007255984008	0.01946067992460825	-0.4362743938164934	1.342943655675849	1.342943655675851	0.02550889742681138	0.1745327018027048	0.4358714019005734	0.0829156644406381	0.02550172812721334	0.006241754563568035	0.04921646736469765	-0.1471552859440235	0.0008719343276898841	-0.04141435038123983	0.005186441610171079	-0.1507339840070236	-0.1507339840070236	-0.002209606615047295	-4.416208737203923e-06	-0.03515707868791964	-0.009993375165895714	-0.2784074142292819	0.008585971366740072	0.01864936761277783	-0.4828857940144938	-0.02074505074942626	0.008449053902857457	0.2981817919481906	-0.04488456920990366	-55.25140985672126	-5.185414382369558	0.3508467809954522	16.71773052780038	-799.2262264734075	66.46561473528757	1.283703951747743	0.1333757495476257	1.68862289754832	-5.295542784232206	-0.01569795100851056	-1.085532944672111	0.3002195480435986	-5.103442244531267	-5.103442244531275	0.3068255527394191	0.01048970675533604	-1.323042991366558	-0.4693272173487614	2.040394669076211e-09	-1.786557790995363e-09	4.058039112283775e-08	1.788547929616455e-08	2.537324272510458e-09	-1.100558104805999e-08	4.179747688416295e-08
1.03	-0.2904115104050981	0.006982013766381576	0.68027294177833	1.390704715411982	-0.2471926264566118	0.0189930076754686	-0.4362053038723002	1.341181372814349	1.341181372814348	0.02550255405538943	0.1745326683639098	0.4354537278694454	0.08279256256159104	0.0380679293407043	0.007604064068834707	0.06604486758049971	-0.1997958339748928	0.0007502548109733088	-0.05211368896541326	0.008776876536529629	-0.2017265617610093	-0.2017265617610095	0.000946554602636424	-2.44057978637782e-06	-0.04837848042824081	-0.01462108787732803	-0.2790198250040625	0.008802704331005402	0.01865991283049221	-0.4817852813696891	-0.02154439377242174	0.008523650680807727	0.2988356457110242	-0.0449025760135202	-55.50584523305594	-5.190453913479047	0.3435255618578132	16.77187134038795	-799.3501490323872	66.36093823161522	1.236358939948464	0.139429264812742	1.678416938756889	-5.24198561800127	-0.01004364578081067	-1.061174717260041	0.4102548611489944	-5.097762033641846	-5.097762033641872	0.3208598749750906	-0.004965874400676001	-1.321803913751923	-0.4585948707969494	2.353633506394548e-09	-1.097432485320306e-09	5.415634572801085e-08	2.376053418411098e-08	9.116666389103591e-11	-1.280992419525716e-08	5.515511128472544e-08
